<svg xmlns="http://www.w3.org/2000/svg" viewBox="0 0 24.1 23.8"><path d="M24.1 1.1c0 .3-.1.6-.3.9-.2.2-.5.4-.8.3h-9.8v3.1h7.7c.1-.2.5-.4.8-.4.2 0 .5.1.7.3.2.2.3.4.3.7v16.6c0 .3-.1.6-.4.9-.2.2-.6.4-.9.4-.3 0-.6-.1-.9-.4-.4-.3-.5-.9-.2-1.3h-1c-.2 0-.4-.1-.5-.3v-.1c0-.3.1-.5.5-.5h1.5V6.7h-7.6v15.9c.1.4-.3.8-.7.9h-.2c-.4.1-.8-.2-.9-.7V6.7H3.8v16.1c0 .3-.1.5-.3.7-.2.2-.4.3-.7.3-.3 0-.5-.1-.7-.3 0-.2-.1-.5-.1-.7V6.1c0-.2.1-.5.3-.7.3-.4.9-.4 1.3 0l.1.1h7.7V2.3H.6c-.3.1-.6-.1-.6-.4v-.2c0-.3.2-.6.5-.6h21.4c0-.3.1-.6.4-.8.1-.2.4-.3.7-.3.3 0 .6.1.8.3.2.3.4.5.3.8zm-15 17c0 .3-.2.5-.4.7-.1.1-.4.2-.7.2-.5.1-.9-.3-1-.8V18c-.4-.7-.9-1.5-1.5-2.4-.1-.1-.1-.3-.1-.4.1-.2.3-.4.5-.3H6c.7.3 1.4.7 2 1.3.7.4 1.1 1.1 1.1 1.9zm.6-6.3c0 .6-.4 1-1 1.1-.5.1-1-.3-1-.7V12c-.5-.7-1-1.4-1.6-2-.1-.2-.2-.3-.1-.5 0-.2.2-.4.4-.3h.1c.7.2 1.4.5 2 .9.6.4 1.1 1 1.2 1.7zm8.9 5.6c0 .3-.1.5-.2.8-.2.2-.4.4-.7.4-.5.1-1-.2-1.1-.7v-.2c-.5-.6-1.1-1.3-1.8-2-.1-.1-.2-.3-.1-.4 0-.2.2-.4.5-.4h.1c.7.2 1.5.4 2.1.8.6.3 1.1 1 1.2 1.7zm.2-5.3c0 .3-.1.6-.2.8-.2.2-.4.4-.7.4-.5.1-.9-.2-1.1-.7l-1.9-2.2c-.1-.1-.2-.3-.1-.4 0-.2.2-.4.4-.4h.1c.6.1 1.1.3 1.6.6.8.3 1.4.9 1.8 1.6 0 .2 0 .2.1.3z" fill="#fff"/></svg>