<svg xmlns="http://www.w3.org/2000/svg" viewBox="0 0 26.3 26"><path d="M10.8 21c.2.5-.1 1-.6 1.2H10c-.3.1-.6 0-.8-.1-.2-.1-.4-.4-.5-.6v-.2c-.5-.5-1.1-.9-1.7-1.3-.5 1-1.2 2-2 2.9-1.1 1.4-2.6 2.5-4.3 3-.2.1-.4 0-.5-.2-.2-.2-.2-.4 0-.6 0 0 .1-.1.2-.1l.1-.1c.6-.4 1.2-.8 1.7-1.3 1.4-1.4 2.5-2.9 3.3-4.7l-2.3-1.3v.3c0 .3-.2.5-.4.6-.2.1-.5.2-.7.1-.2 0-.5-.2-.6-.4-.2-.2-.2-.5-.2-.7l1.8-10H.6c-.3.1-.6-.1-.6-.4V7c0-.3.2-.5.5-.6h2.8l1-5.7c.1-.3.2-.5.4-.6.3-.1.5-.2.8-.1.2 0 .5.2.6.4.1.2.2.5.2.7l-1 5.3h3.2c.2-.2.5-.3.8-.3.3 0 .6.1.8.3.2.2.3.5.4.8 0 .3-.1.6-.4.8-.1 3.5-.9 7-2.2 10.3 1.7.9 2.7 1.8 2.9 2.7zM8 7.6H5l-1.7 9.3h.3c.9.2 1.7.4 2.4.7 1.3-3.2 1.9-6.6 2-10zm18.2 16.3c-.1.2-.3.3-.5.3h-.1c-.3-.1-.6-.2-.9-.4 0 .3 0 .6-.2.9-.2.2-.4.4-.7.4-.3.1-.6 0-.8-.1-2.6-1.9-4.6-5.1-5.9-9.8-.5 3.3-2.1 6.2-4.6 8.4-.5.4-.9.7-1.5 1.1-1.1.7-2.3 1.1-3.5 1.4-.2.1-.4-.1-.5-.3-.1-.2 0-.4.1-.5h.2c1.5-.7 2.9-1.7 4.1-2.9 2.7-2.8 4.1-6.5 4.1-10.4h-4.7c-.3 0-.5-.2-.6-.4v-.2c0-.3.2-.5.4-.6h4.9V4.2c-1.6.3-3.2.5-4.7.7-.2 0-.5-.1-.5-.4 0-.2.1-.4.3-.5h.1c3.2-.7 6.3-1.7 9.4-2.7.2-.4.6-.6 1-.6.3 0 .6.1.9.3.2.2.4.5.4.8 0 .2-.1.4-.2.6-.1.4-.5.6-.8.6-.5.2-1.8.5-3.9.9v6.8h5.4c0-.5.4-.9.9-.9h.1c.6 0 1.1.4 1.1 1 0 .3-.1.5-.3.7-.2.2-.5.3-.8.3h-6.5v.6c.6 1.8 1.4 3.6 2.4 5.3 1.4 2.5 3.6 4.4 6.2 5.5.2.2.3.4.2.7.1 0 0 0 0 0z" fill="#fff"/></svg>