<svg xmlns="http://www.w3.org/2000/svg" viewBox="0 0 25.2 25.1"><path d="M10.7 9c.1.5-.3.9-.7 1H7v2.2c.1-.1.3-.1.4 0 .6.3 1.1.6 1.6 1 .8.4 1.3 1.2 1.5 2.1v.1c.1.5-.3 1-.8 1.1h-.1c-.3 0-.6-.1-.9-.3-.2-.2-.4-.5-.3-.8-.3-.7-.8-1.4-1.4-2.3V24c.1.4-.3.9-.7.9h-.2c-.4.1-.9-.2-.9-.7v-9.6c-1 2.3-2.5 4.3-4.4 6-.1.1-.4.1-.5 0-.3-.1-.4-.3-.3-.5 0 0 0-.1.1-.1 2.2-3.1 3.9-6.4 5-10H1c-.3 0-.5-.2-.6-.4v-.1c0-.3.2-.5.5-.6h4.2V1.1c0-.5.3-.9.7-1H6c.5 0 .9.3 1 .7v8.1h1.8c0-.5.5-.8.9-.8.3 0 .5.1.7.3.2.1.3.3.3.6zM4.1 6.2v.1c0 .7-.4 1-1 1-.3 0-.5-.1-.7-.3-.3-.1-.4-.4-.4-.6V6l-.8-2.3c-.1-.2 0-.3.1-.5s.4-.2.6-.1c0 0 .1 0 .1.1 1.3 1.1 2 2.1 2.1 3zm6.8-2.1c0 .5-.3 1-.8 1.1-.5.8-1 1.6-1.7 2.3-.1.1-.2.2-.4.1-.2 0-.4-.2-.3-.5V7l1.1-3.4c.2-.3.6-.6 1-.5.3 0 .6.1.8.3.2.2.3.4.3.7zm14.3 5.6c0 .3-.1.5-.3.7-.2.2-.5.3-.8.3h-12c-.3 0-.5-.2-.6-.4v-.2c0-.3.2-.5.4-.6h4.6V7.4h-4c-.2.1-.5-.2-.5-.4v-.1c0-.3.2-.5.4-.6h4.2v-2h-4.2c-.3 0-.5-.2-.6-.4v-.2c0-.3.2-.5.4-.6h4.3V1c0-.3.1-.5.3-.7.1-.2.4-.3.7-.3.2 0 .5.1.7.3.2.2.3.4.3.7v2.1h3.8c.1-.5.5-.8 1-.8.3 0 .5.1.7.3 0 .2.1.4.1.6.1.5-.3.9-.8 1h-5v2h3c.1-.5.5-.8 1-.8s1 .5 1 1c.1.5-.3.9-.7 1h-4.1v2.1h4.8c0-.5.4-.9.9-.9h.1c.3 0 .5.1.7.3.1.2.2.5.2.8zm-2 14.2c0 .3-.1.6-.4.8-.2.2-.5.3-.8.3-.3 0-.6-.1-.8-.3-.2-.2-.3-.5-.3-.8 0-.2 0-.3.1-.5h-1c-.2 0-.5-.1-.5-.4 0-.2.1-.5.4-.5h1.4v-3.4h-6.9v5c0 .3-.1.5-.3.7-.2.2-.4.3-.7.3-.5 0-1-.4-1-1V12.6c0-.5.3-1 .9-1 .3 0 .7.1.8.4h7.3c.2-.3.5-.5.8-.4.6 0 1 .4 1 1v11.3zM21.4 15v-1.9h-6.9V15h6.9zm0 3v-1.9h-6.9V18h6.9z" fill="#fff"/></svg>